<svg id="SvgjsSvg1011" width="288" height="288" xmlns="http://www.w3.org/2000/svg" version="1.1" xmlns:xlink="http://www.w3.org/1999/xlink" xmlns:svgjs="http://svgjs.com/svgjs"><defs id="SvgjsDefs1012"></defs><g id="SvgjsG1013"><svg xmlns="http://www.w3.org/2000/svg" viewBox="0 0 24 24" width="288" height="288"><path d="M5 7h14c.6 0 1-.4 1-1s-.4-1-1-1H5c-.6 0-1 .4-1 1s.4 1 1 1zm0 6h14c.6 0 1-.4 1-1s-.4-1-1-1H5c-.6 0-1 .4-1 1s.4 1 1 1zm0 6h14c.6 0 1-.4 1-1s-.4-1-1-1H5c-.6 0-1 .4-1 1s.4 1 1 1z" fill="#ffffff" class="color000 svgShape"></path></svg></g></svg>