<svg xmlns="http://www.w3.org/2000/svg" viewBox="0 0 2047.12 1343.31"><defs><style>.cls-1{fill:#fdfdfd;}.cls-2{fill:#fd3376;}.cls-3{fill:#a935a7;}.cls-4{fill:#ecdd00;}.cls-5{fill:#fefefe;}.cls-6{fill:#872c65;}.cls-7{fill:#862c65;}</style></defs><g id="Layer_2" data-name="Layer 2"><g id="Layer_1-2" data-name="Layer 1"><path class="cls-1" d="M2044.89,989.21c-1.18-9.09-2.9-18.09-5-27-24.13-105.66-112.52-185.25-220.12-197.84-52.22-6.11-101.63,3.57-147.77,28.62-95.28,51.71-148.7,158.3-133.58,266.48,8.42,60.3,34,112.36,78.28,154.36,56.7,53.74,124.34,77.24,202.22,69.27,58.54-6,108.76-30.56,150.32-72,51.66-51.45,76.63-114.36,77.83-186.95A261.29,261.29,0,0,0,2044.89,989.21ZM1456.15,159.77c0-34-14.67-61.07-41.75-81.35-18.11-13.56-38.86-19.54-61.32-19.57q-116.4-.12-232.81,0c-5.66,0-11.34.17-17,.62-29.74,2.38-53.69,15.67-72.21,38.86-13.9,17.41-20.26,37.64-21.62,59.64a5.61,5.61,0,0,1,1.24,2.27c6.27,3.65,10.74,8.51,15.39,12.95,12.69,12.07,25.27,24.3,37.18,37.13a665.42,665.42,0,0,1,53.2,65.31,676.55,676.55,0,0,1,64.13,110.45,660.84,660.84,0,0,1,44.15,129.12,643.43,643.43,0,0,1,13.17,75.93c1.85,17.34,3.15,34.69,4.13,52.11.86,15.17.91,30.32.53,45.45-.46,17.9-1.78,35.78-3.56,53.64a668.86,668.86,0,0,1-10.49,68.81,677.17,677.17,0,0,1-105.38,246.67,637.89,637.89,0,0,1-45.2,58.3c-12.61,14.42-25.44,28.64-39.23,41.93-8.15,7.85-16.62,15.37-25,23-.71.65-1.36,1.71-2.47,1.33a1.29,1.29,0,0,1-.45-.25,6.28,6.28,0,0,1-1.45,2.95c.28,2.15.63,4.29.81,6.44,4.29,51.92,48.36,92.49,100.53,92.49h242.82a118.85,118.85,0,0,0,14-.81c50-5.89,88.7-49.33,88.7-99.91Q1456.25,671.55,1456.15,159.77ZM1009.49,724.9c0-2.2-.12-4.4-.2-6.6.46.11.82.7,1.14,1.39v-1.31c0-3,0-6,0-9l.08-.09c2-2.06,1.88-4.85,2.13-7.37a317.17,317.17,0,0,0,0-61.08c-.25-2.55-.11-5.39-2.26-7.43.56,8.43,1.16,16.86,1.67,25.3,1,16.89-.41,33.71-1.62,50.53-3.61,2.47-2.54,5.54-1.11,8.67,0,.12,0,.25-.08.37-3.07,14.51-5.6,29.17-10.43,43.24C961.8,869.15,889,938.6,777,961.8c-86.13,17.84-165-3.27-233.67-58.33C487.5,858.7,452,800.41,439.3,730.12c-19.5-107.87,9.77-201.54,89.37-277.71C573.08,409.9,626.81,385,688.08,378c87.57-10,164.35,15,229.22,74.51,50.4,46.22,80.27,103.94,91.35,171.39a8.45,8.45,0,0,0,.53,1.56l.12.31c-1.34,2.76-2.6,5.51,1,7.48a1.11,1.11,0,0,0,.07.16v-.12c0-2.63.08-5.25.08-7.88V624c-.31.69-.67,1.26-1.1,1.39.06-1.22.17-2.43.17-3.65q0-231.91,0-463.81c-.77-.62-1.58-1.21-2.31-1.87-40.3-36.66-84.37-67.94-132.92-92.77C788,19.21,696.5-2.22,599.51.18A570.53,570.53,0,0,0,516,8.39,564,564,0,0,0,317.47,83.11C212.14,147.23,133,235.66,77.2,345.15,19.91,457.62-4.36,577.36.64,703.25a711,711,0,0,0,10.72,98.31c12.64,70,34.78,136.74,67.58,199.88,53,102.11,126.36,186.14,223.2,248.91q132.42,85.82,290.3,92.51a551.74,551.74,0,0,0,129.37-10c82.67-16.29,158-49.53,226.61-98.32,21.37-15.2,41.41-32,61-49.41,0-2,.1-4,.1-6Q1009.5,952,1009.49,724.9Z"/><path class="cls-2" d="M1009.5,1179.1c0,2-.06,4-.1,6-19.57,17.4-39.61,34.21-61,49.41-68.59,48.79-143.94,82-226.61,98.32a551.74,551.74,0,0,1-129.37,10q-157.77-6.42-290.3-92.51c-96.84-62.77-170.17-146.8-223.2-248.91C46.14,938.3,24,871.52,11.36,801.56A711,711,0,0,1,.64,703.25c-5-125.89,19.27-245.63,76.56-358.1C133,235.66,212.14,147.23,317.47,83.11A564,564,0,0,1,516,8.39,570.53,570.53,0,0,1,599.51.18c97-2.4,188.47,19,274.72,63.15,48.55,24.83,92.62,56.11,132.92,92.77.73.66,1.54,1.25,2.31,1.87q0,231.9,0,463.81c0,1.22-.11,2.43-.17,3.65a.32.32,0,0,1-.14,0,8.45,8.45,0,0,1-.53-1.56c-11.08-67.45-40.95-125.17-91.35-171.39C852.43,393,775.65,368,688.08,378c-61.27,7-115,31.9-159.41,74.41-79.6,76.17-108.87,169.84-89.37,277.71C452,800.41,487.5,858.7,543.36,903.47,612.07,958.53,690.9,979.64,777,961.8c112-23.2,184.77-92.65,221.74-200.28,4.83-14.07,7.36-28.73,10.43-43.24a.15.15,0,0,1,.09,0c.08,2.2.2,4.4.2,6.6Q1009.51,952,1009.5,1179.1Z"/><path class="cls-3" d="M1010.42,624v1.37c0,2.63,0,5.25-.08,7.88l-.07,0c-3.57-2-2.31-4.72-1-7.48,0-.11,0-.23,0-.34C1009.75,625.3,1010.11,624.73,1010.42,624Z"/><path class="cls-3" d="M1009.29,718.3c0-.13,0-.26,0-.39-1.43-3.13-2.5-6.2,1.11-8.67h0l.06.06-.08.09c0,3,0,6,0,9v1.31C1010.11,719,1009.75,718.41,1009.29,718.3Z"/><path class="cls-3" d="M1456.23,1183.32c0,50.58-38.65,94-88.7,99.91a118.85,118.85,0,0,1-14,.81H1110.74c-52.17,0-96.24-40.57-100.53-92.49-.18-2.15-.53-4.29-.81-6.44a6.28,6.28,0,0,0,1.45-2.95,1.29,1.29,0,0,0,.45.25c1.11.38,1.76-.68,2.47-1.33,8.33-7.66,16.8-15.18,25-23,13.79-13.29,26.62-27.51,39.23-41.93a637.89,637.89,0,0,0,45.2-58.3A672.75,672.75,0,0,0,1239,742.33c1.78-17.86,3.1-35.74,3.56-53.64.38-15.13.33-30.28-.53-45.45-1-17.42-2.28-34.77-4.13-52.11a643.43,643.43,0,0,0-13.17-75.93,660.84,660.84,0,0,0-44.15-129.12,676.55,676.55,0,0,0-64.13-110.45,665.42,665.42,0,0,0-53.2-65.31c-11.91-12.83-24.49-25.06-37.18-37.13-4.65-4.44-9.12-9.3-15.39-12.95a5.61,5.61,0,0,0-1.24-2.27c1.36-22,7.72-42.23,21.62-59.64,18.52-23.19,42.47-36.48,72.21-38.86,5.64-.45,11.32-.62,17-.62q116.4-.06,232.81,0c22.46,0,43.21,6,61.32,19.57,27.08,20.28,41.74,47.39,41.75,81.35Q1456.36,671.54,1456.23,1183.32Z"/><path class="cls-4" d="M2047.12,1024.16c-1.2,72.59-26.17,135.5-77.83,186.95-41.56,41.4-91.78,66-150.32,72-77.88,8-145.52-15.53-202.22-69.27-44.31-42-69.86-94.06-78.28-154.36-15.12-108.18,38.3-214.77,133.58-266.48,46.14-25.05,95.55-34.73,147.77-28.62,107.6,12.59,196,92.18,220.12,197.84,2,8.94,3.77,17.94,5,27A261.29,261.29,0,0,1,2047.12,1024.16Z"/><path class="cls-5" d="M1010.27,633.25c-3.57-2-2.31-4.72-1-7.48C1009.51,628.27,1009.17,630.86,1010.27,633.25Z"/><path class="cls-5" d="M1012.59,701.92c-.25,2.52-.1,5.31-2.13,7.37l-.08.09c-1.2,2.74-1,5.66-1.1,8.53-1.43-3.13-2.5-6.2,1.11-8.67,1.21-16.82,2.65-33.64,1.62-50.53-.51-8.44-1.11-16.87-1.67-25.3,2.15,2,2,4.88,2.26,7.43A317.17,317.17,0,0,1,1012.59,701.92Z"/><path class="cls-6" d="M1242.58,688.69c-.46,17.9-1.78,35.78-3.56,53.64a668.86,668.86,0,0,1-10.49,68.81,677.17,677.17,0,0,1-105.38,246.67,637.89,637.89,0,0,1-45.2,58.3c-12.61,14.42-25.44,28.64-39.23,41.93q-4.32,4.15-8.73,8.21c-2.93,2.71-5.89,5.4-8.84,8.08l-4.34,4c-.8.72-1.53,1.5-2.34,2.21-1.28,1.11-2.55,2.22-3.84,3.31l-.77.67c-.18.15-.47.31-.47.58.07-2,.11-4,.11-6q0-227.1,0-454.2c0-2.2-.12-4.4-.2-6.6.46.11.82.7,1.14,1.39v-1.31c0-3,0-6,0-9l.08-.09c2-2.06,1.88-4.85,2.13-7.37a317.17,317.17,0,0,0,0-61.08c-.25-2.55-.11-5.39-2.26-7.43v-.12c0-2.63.08-5.25.08-7.88V624c-.31.69-.67,1.26-1.1,1.39.06-1.22.17-2.43.17-3.65q0-231.91,0-463.81a5.61,5.61,0,0,1,1.24,2.27c6.27,3.65,10.74,8.51,15.39,12.95,12.69,12.07,25.27,24.3,37.18,37.13a665.42,665.42,0,0,1,53.2,65.31,676.55,676.55,0,0,1,64.13,110.45,660.84,660.84,0,0,1,44.15,129.12,643.43,643.43,0,0,1,13.17,75.93c1.85,17.34,3.15,34.69,4.13,52.11C1242.91,658.41,1243,673.56,1242.58,688.69Z"/><path class="cls-7" d="M1012.59,701.92c-.25,2.52-.1,5.31-2.13,7.37l-.08.09s0-.09,0-.14c1.21-16.82,2.65-33.64,1.62-50.53-.51-8.44-1.11-16.87-1.67-25.3,2.15,2,2,4.88,2.26,7.43A317.17,317.17,0,0,1,1012.59,701.92Z"/></g></g></svg>